<?xml version="1.0" standalone="no"?>
<!DOCTYPE svg PUBLIC "-//W3C//DTD SVG 1.1//EN"
  "http://www.w3.org/Graphics/SVG/1.1/DTD/svg11.dtd">
<svg width="173.4499969482422mm" height="180.30799865722653mm" viewBox="-86.7249984741211 -90.15399932861327 173.4499969482422 180.30799865722653" xmlns="http://www.w3.org/2000/svg" version="1.1">
	<title>svgOutput</title>
	<desc>made with tinkercad</desc>
<path d="M 84.29000091552734 -82.0449981689453 L 84.34923553466797 -81.9199981689453 L 84.53500366210938 -81.52799987792967 L 84.75800323486328 -80.99999999999999 L 84.95899963378906 -80.46299743652342 L 85.13700103759766 -79.91799926757811 L 85.29199981689453 -79.36399841308592 L 85.42400360107422 -78.80500030517577 L 85.53199768066406 -78.23999786376952 L 85.61599731445312 -77.6699981689453 L 85.677001953125 -77.0970001220703 L 85.71299743652344 -76.52200317382811 L 85.7249984741211 -75.9459991455078 L 85.7249984741211 -65.53600311279295 L 85.7249984741211 1.1102230246251565e-16 L 85.7249984741211 65.53600311279295 L 85.7249984741211 75.9459991455078 L 85.71299743652344 76.52200317382811 L 85.677001953125 77.0970001220703 L 85.61599731445312 77.6699981689453 L 85.53199768066406 78.23999786376952 L 85.42400360107422 78.80500030517577 L 85.29199981689453 79.36399841308592 L 85.13700103759766 79.91799926757811 L 84.95899963378906 80.46299743652342 L 84.75800323486328 80.99999999999999 L 84.53500366210938 81.52799987792967 L 84.34923553466797 81.9199981689453 L 84.29000091552734 82.0449981689453 L 84.02400207519531 82.5500030517578 L 83.73600006103516 83.04299926757811 L 83.4280014038086 83.52200317382811 L 83.10099792480469 83.98699951171874 L 82.75399780273438 84.43599700927733 L 82.38800048828125 84.86900329589842 L 82.00499725341797 85.28500366210936 L 81.91999816894531 85.36978912353514 L 81.6050033569336 85.68399810791014 L 81.18800354003906 86.06400299072264 L 80.75599670410156 86.4250030517578 L 80.30899810791016 86.76499938964842 L 79.8489990234375 87.08599853515624 L 79.375 87.38400268554686 L 78.88899993896484 87.66200256347655 L 78.39199829101562 87.91699981689452 L 77.88500213623047 88.1490020751953 L 77.8239974975586 88.17359161376952 L 77.36900329589844 88.35700225830077 L 76.84400177001953 88.54299926757811 L 76.31199645996094 88.70400238037108 L 75.77400207519531 88.84100341796874 L 75.2300033569336 88.95300292968749 L 74.68299865722656 89.04100036621092 L 74.13200378417969 89.10399627685545 L 73.72799682617188 89.13102722167967 L 73.5790023803711 89.14099884033202 L 73.0250015258789 89.15399932861327 L 65.53600311279297 89.15399932861327 L 0 89.15399932861327 L -65.53600311279297 89.15399932861327 L -73.0250015258789 89.15399932861327 L -73.5790023803711 89.14099884033202 L -73.72799682617188 89.13102722167967 L -74.13200378417969 89.10399627685545 L -74.68299865722656 89.04100036621092 L -75.2300033569336 88.95300292968749 L -75.77400207519531 88.84100341796874 L -76.31199645996094 88.70400238037108 L -76.84400177001953 88.54299926757811 L -77.36900329589844 88.35700225830077 L -77.8239974975586 88.17359161376952 L -77.88500213623047 88.1490020751953 L -78.39199829101562 87.91699981689452 L -78.88899993896484 87.66200256347655 L -79.375 87.38400268554686 L -79.8489990234375 87.08599853515624 L -80.30899810791016 86.76499938964842 L -80.75599670410156 86.4250030517578 L -81.18800354003906 86.06400299072264 L -81.6050033569336 85.68399810791014 L -81.91999816894531 85.36978912353514 L -82.00499725341797 85.28500366210936 L -82.38800048828125 84.86900329589842 L -82.75399780273438 84.43599700927733 L -83.10099792480469 83.98699951171874 L -83.4280014038086 83.52200317382811 L -83.73600006103516 83.04299926757811 L -84.02400207519531 82.5500030517578 L -84.29000091552734 82.0449981689453 L -84.34923553466797 81.9199981689453 L -84.53500366210938 81.52799987792967 L -84.75800323486328 80.99999999999999 L -84.95899963378906 80.46299743652342 L -85.13700103759766 79.91799926757811 L -85.29199981689453 79.36399841308592 L -85.42400360107422 78.80500030517577 L -85.53199768066406 78.23999786376952 L -85.61599731445312 77.6699981689453 L -85.677001953125 77.0970001220703 L -85.71299743652344 76.52200317382811 L -85.7249984741211 75.9459991455078 L -85.7249984741211 65.53600311279295 L -85.7249984741211 1.1102230246251565e-16 L -85.7249984741211 -65.53600311279295 L -85.7249984741211 -75.9459991455078 L -85.71299743652344 -76.52200317382811 L -85.677001953125 -77.0970001220703 L -85.61599731445312 -77.6699981689453 L -85.53199768066406 -78.23999786376952 L -85.42400360107422 -78.80500030517577 L -85.29199981689453 -79.36399841308592 L -85.13700103759766 -79.91799926757811 L -84.95899963378906 -80.46299743652342 L -84.75800323486328 -80.99999999999999 L -84.53500366210938 -81.52799987792967 L -84.34923553466797 -81.9199981689453 L -84.29000091552734 -82.0449981689453 L -84.02400207519531 -82.5500030517578 L -83.73600006103516 -83.04299926757811 L -83.4280014038086 -83.52200317382811 L -83.10099792480469 -83.98699951171874 L -82.75399780273438 -84.43599700927733 L -82.38800048828125 -84.86900329589842 L -82.00499725341797 -85.28500366210936 L -81.91999816894531 -85.36978912353514 L -81.6050033569336 -85.68399810791014 L -81.18800354003906 -86.06400299072264 L -80.75599670410156 -86.4250030517578 L -80.30899810791016 -86.76499938964842 L -79.8489990234375 -87.08599853515624 L -79.375 -87.38400268554686 L -78.88899993896484 -87.66200256347655 L -78.39199829101562 -87.91699981689452 L -77.88500213623047 -88.1490020751953 L -77.8239974975586 -88.17359161376952 L -77.36900329589844 -88.35700225830077 L -76.84400177001953 -88.54299926757811 L -76.31199645996094 -88.70400238037108 L -75.77400207519531 -88.84100341796874 L -75.2300033569336 -88.95300292968749 L -74.68299865722656 -89.04100036621092 L -74.13200378417969 -89.10399627685545 L -73.72799682617188 -89.13102722167967 L -73.5790023803711 -89.14099884033202 L -73.0250015258789 -89.15399932861327 L -65.53600311279297 -89.15399932861327 L 0 -89.15399932861327 L 65.53600311279297 -89.15399932861327 L 73.0250015258789 -89.15399932861327 L 73.5790023803711 -89.14099884033202 L 73.72799682617188 -89.13102722167967 L 74.13200378417969 -89.10399627685545 L 74.68299865722656 -89.04100036621092 L 75.2300033569336 -88.95300292968749 L 75.77400207519531 -88.84100341796874 L 76.31199645996094 -88.70400238037108 L 76.84400177001953 -88.54299926757811 L 77.36900329589844 -88.35700225830077 L 77.8239974975586 -88.17359161376952 L 77.88500213623047 -88.1490020751953 L 78.39199829101562 -87.91699981689452 L 78.88899993896484 -87.66200256347655 L 79.375 -87.38400268554686 L 79.8489990234375 -87.08599853515624 L 80.30899810791016 -86.76499938964842 L 80.75599670410156 -86.4250030517578 L 81.18800354003906 -86.06400299072264 L 81.6050033569336 -85.68399810791014 L 81.91999816894531 -85.36978912353514 L 82.00499725341797 -85.28500366210936 L 82.38800048828125 -84.86900329589842 L 82.75399780273438 -84.43599700927733 L 83.10099792480469 -83.98699951171874 L 83.4280014038086 -83.52200317382811 L 83.73600006103516 -83.04299926757811 L 84.02400207519531 -82.5500030517578 L 84.29000091552734 -82.0449981689453 M 59.818363189697266 -63.029567718505845 L 59.789859771728516 -63.022636413574205 L 59.73593521118164 -63.000732421874986 L 59.72066116333008 -62.9923858642578 L 59.66926956176758 -62.96289825439452 L 59.63051223754883 -62.93593597412108 L 59.58501434326172 -62.8980255126953 L 59.5620231628418 -62.87707901000975 L 59.521583557128906 -62.83326721191405 L 59.51622772216797 -62.82617950439452 L 59.47325897216797 -62.76889038085936 L 59.44882583618164 -62.72760772705077 L 59.44110870361328 -62.71390533447264 L 59.42089080810547 -62.67009353637694 L 59.417266845703125 -62.66174697875975 L 59.40041732788086 -62.61625289916991 L 59.39773941040039 -62.607746124267564 L 59.391998291015625 -62.58801651000975 L 59.38425827026367 -62.56140899658202 L 59.38205337524414 -62.55258941650389 L 59.37531661987305 -62.517204284667955 L 59.37528610229492 -62.51704025268553 L 59.37110137939453 -62.492771148681626 L 59.369842529296875 -62.48379516601561 L 59.367313385009766 -62.460205078124986 L 59.36668395996094 -62.45107269287108 L 59.3650016784668 -62.40220642089842 L 59.36515808105469 -62.39543151855467 L 59.38453674316406 -62.24883651733397 L 59.38469314575195 -62.24426651000975 L 59.38563919067383 -62.23765182495116 L 59.387210845947266 -62.22867584228514 L 59.389732360839844 -62.22001647949217 L 59.390594482421875 -62.21790313720702 L 59.391998291015625 -62.21446609497069 L 59.39571762084961 -62.20537185668944 L 59.397762298583984 -62.20143127441405 L 59.468536376953125 -62.03882598876952 L 59.477195739746094 -62.025756835937486 L 59.50799560546875 -61.98247146606444 L 59.50836944580078 -61.98194503784178 L 59.5238037109375 -61.966037750244126 L 59.587833404541016 -61.8994789123535 L 59.680511474609375 -61.83207702636717 L 59.69499969482422 -61.82199859619139 L 59.76324462890625 -61.78829956054686 L 59.77914810180664 -61.78089904785155 L 59.88615036010742 -61.751407623291 L 59.90740966796875 -61.74652862548827 L 59.999752044677734 -61.741535186767564 L 60.00093078613281 -61.741474151611314 L 60.018409729003906 -61.741001129150376 L 60.043922424316406 -61.74635314941405 L 60.1365966796875 -61.75646591186522 L 60.26887512207031 -61.80280303955077 L 60.28099822998047 -61.80799865722655 L 60.39699935913086 -61.88499832153319 L 60.40203857421875 -61.88940811157225 L 60.41600036621094 -61.90418243408202 L 60.47449493408203 -61.96607971191405 L 60.4871940612793 -61.98091888427733 L 60.48756790161133 -61.98135375976561 L 60.49134826660156 -61.98686599731444 L 60.55369186401367 -62.076171874999986 L 60.55889129638672 -62.086093902587876 L 60.560298919677734 -62.08934020996092 L 60.5625114440918 -62.094440460205064 L 60.56471633911133 -62.10073852539061 L 60.565818786621094 -62.10514831542967 L 60.62142562866211 -62.26438522338866 L 60.62363052368164 -62.275566101074205 L 60.624732971191406 -62.28674697875975 L 60.63484191894531 -62.407226562499986 L 60.6349983215332 -62.411796569824205 L 60.63484191894531 -62.41636276245116 L 60.634368896484375 -62.42313385009764 L 60.63263702392578 -62.43431472778319 L 60.627540588378906 -62.46400070190428 L 60.6039924621582 -62.601135253906236 L 60.60226058959961 -62.607746124267564 L 60.59958267211914 -62.61625289916991 L 60.59406661987305 -62.628208160400376 L 60.59296798706055 -62.630580902099595 L 60.58950424194336 -62.63640975952147 L 60.48503112792969 -62.82429122924803 L 60.479835510253906 -62.831535339355455 L 60.472591400146484 -62.84003829956053 L 60.41600036621094 -62.89223480224608 L 60.38581085205078 -62.920078277587876 L 60.37715148925781 -62.927795410156236 L 60.361244201660156 -62.93881988525389 L 60.27193832397461 -62.99695205688475 L 60.261070251464844 -63.00199127197264 L 60.150699615478516 -63.039062499999986 L 60.13920593261719 -63.04268646240233 L 60.122039794921875 -63.04552078247069 L 59.99481964111328 -63.05899810791014 L 59.97843933105469 -63.05821228027342 L 59.88651657104492 -63.046134948730455 L 59.863014221191406 -63.043048858642564 L 59.818363189697266 -63.029567718505845 M -60.51953887939453 -62.778503417968736 L -60.522804260253906 -62.77424240112303 L -60.547237396240234 -62.73295974731444 L -60.5632438659668 -62.70010375976561 L -60.57851791381836 -62.67269897460936 L -60.612220764160156 -62.569911956787095 L -60.617733001708984 -62.54802322387694 L -60.6302604675293 -62.46400070190428 L -60.63205337524414 -62.45197677612303 L -60.633155822753906 -62.43339538574217 L -60.62725830078125 -62.306171417236314 L -60.62442398071289 -62.28428268432616 L -60.57892990112305 -62.135158538818345 L -60.56743240356445 -62.10586547851561 L -60.53963088989258 -62.051944732666 L -60.53474807739258 -62.04454421997069 L -60.497676849365234 -61.99062347412108 L -60.492164611816406 -61.98353576660155 L -60.46183395385742 -61.946464538574205 L -60.45506286621094 -61.93906402587889 L -60.421363830566406 -61.9062042236328 L -60.41600036621094 -61.901767730712876 L -60.408607482910156 -61.89565277099608 L -60.35300064086914 -61.85100173950194 L -60.34543991088867 -61.84627532958983 L -60.2847785949707 -61.81004714965819 L -60.277061462402344 -61.806110382080064 L -60.1894416809082 -61.77156829833983 L -60.176998138427734 -61.76699829101561 L -60.069000244140625 -61.74399948120116 L -59.986000061035156 -61.74000167846678 L -59.930999755859375 -61.74399948120116 L -59.8489990234375 -61.758998870849595 L -59.76137924194336 -61.79017257690428 L -59.73334503173828 -61.802299499511705 L -59.67100143432617 -61.835998535156236 L -59.58100128173828 -61.90399932861327 L -59.52354431152344 -61.96674728393553 L -59.505001068115234 -61.986999511718736 L -59.44265365600586 -62.0889434814453 L -59.43525314331055 -62.100124359130845 L -59.42753601074219 -62.11634826660155 L -59.391998291015625 -62.244506835937486 L -59.37614059448242 -62.301700592041 L -59.37094497680664 -62.321384429931626 L -59.36921310424805 -62.33934020996092 L -59.3650016784668 -62.40000152587889 L -59.3663444519043 -62.438957214355455 L -59.36668395996094 -62.44886779785155 L -59.37030792236328 -62.475952148437486 L -59.372833251953125 -62.49954223632811 L -59.37704849243164 -62.52397537231444 L -59.38125991821289 -62.547565460205064 L -59.390525817871094 -62.58295440673827 L -59.391998291015625 -62.58750534057616 L -59.409061431884766 -62.64024353027342 L -59.415836334228516 -62.65914154052733 L -59.430999755859375 -62.69200134277342 L -59.4516487121582 -62.732501983642564 L -59.452903747558594 -62.73497009277342 L -59.49334716796875 -62.793945312499986 L -59.532100677490234 -62.83943939208983 L -59.557456970214844 -62.873142242431626 L -59.668670654296875 -62.96076202392577 L -59.677330017089844 -62.96753692626952 L -59.68376541137695 -62.971557617187486 L -59.68489074707031 -62.97225952148436 L -59.69260787963867 -62.976196289062486 L -59.839202880859375 -63.03433227539061 L -59.84739303588867 -63.03763961791991 L -59.85369110107422 -63.03968429565428 L -59.85999298095703 -63.041259765624986 L -59.86865234375 -63.04251861572264 L -59.94279479980469 -63.05768585205077 L -59.95145797729492 -63.058315277099595 L -59.96027374267578 -63.058158874511705 L -59.97323226928711 -63.057731628417955 L -60.08214569091797 -63.05414962768553 L -60.08833694458008 -63.05394363403319 L -60.122039794921875 -63.04528427124022 L -60.16753387451172 -63.03517150878905 L -60.287174224853516 -62.9888343811035 L -60.305755615234375 -62.97718048095702 L -60.39085006713867 -62.918205261230455 L -60.41600036621094 -62.895378112792955 L -60.445613861083984 -62.868495941162095 L -60.46466827392578 -62.850070953369126 L -60.51953887939453 -62.778503417968736 M 60.6222038269043 62.52504730224608 L 60.629703521728516 62.46400070190428 L 60.63399887084961 62.42900085449217 L 60.63384246826172 62.41765975952147 L 60.63130187988281 62.353507995605455 L 60.63047409057617 62.33256530761717 L 60.6295280456543 62.32358932495116 L 60.627952575683594 62.31461334228514 L 60.553810119628906 62.08713531494139 L 60.551292419433594 62.07847213745116 L 60.54814147949219 62.06996917724608 L 60.54436111450195 62.06177902221678 L 60.539794921875 62.05406188964842 L 60.53459930419922 62.046817779541 L 60.46466827392578 61.94992828369139 L 60.45899963378906 61.94300079345702 L 60.41600036621094 61.90567779541014 L 60.412391662597656 61.90254974365233 L 60.369693756103516 61.86548995971678 L 60.3633918762207 61.859348297119126 L 60.35300064086914 61.85100173950194 L 60.22746276855469 61.78696823120116 L 60.219905853271484 61.782245635986314 L 60.20399856567383 61.77500152587889 L 60.09700012207031 61.747001647949205 L 60.01106262207031 61.74278640747069 L 59.99799346923828 61.74184417724608 L 59.99441909790039 61.741970062255845 L 59.984920501708984 61.74231338500975 L 59.976261138916016 61.74357604980467 L 59.85325241088867 61.75789642333983 L 59.837337493896484 61.76378250122069 L 59.75299072265625 61.79496765136717 L 59.734092712402344 61.80110931396483 L 59.73035430908203 61.80334091186522 L 59.6548957824707 61.84828948974608 L 59.62592315673828 61.86766052246092 L 59.55430603027344 61.9300079345703 L 59.53745651245117 61.950954437255845 L 59.449832916259766 62.07143402099608 L 59.44022750854492 62.09174728393553 L 59.40315628051758 62.174316406249986 L 59.39557647705078 62.19706344604491 L 59.391998291015625 62.209648132324205 L 59.39163589477539 62.21092224121092 L 59.3806266784668 62.25497436523436 L 59.37984085083008 62.25810241699217 L 59.37562942504883 62.2816925048828 L 59.37409591674805 62.290580749511705 L 59.37141799926758 62.306125640869126 L 59.369998931884766 62.313999176025376 L 59.367000579833984 62.341999053955064 L 59.36588668823242 62.37434005737303 L 59.3650016784668 62.40000152587889 L 59.36531448364258 62.4091339111328 L 59.391998291015625 62.540580749511705 L 59.40890121459961 62.62383651733397 L 59.41081237792969 62.633243560791 L 59.41128158569336 62.637653350830064 L 59.412071228027344 62.64221954345702 L 59.41285705566406 62.64662933349608 L 59.415061950683594 62.655448913574205 L 59.419944763183594 62.66773223876952 L 59.492401123046875 62.791584014892564 L 59.507835388183594 62.81646347045897 L 59.54658889770508 62.86196136474608 L 59.557456970214844 62.873142242431626 L 59.668670654296875 62.96076202392577 L 59.68111038208008 62.96989822387694 L 59.69764709472656 62.97840118408202 L 59.860252380371094 63.0424346923828 L 59.87867736816406 63.04747390747069 L 59.89773178100586 63.048889160156236 L 60.1066780090332 63.048889160156236 L 60.124000549316406 63.04700088500975 L 60.14667892456055 63.03944015502928 L 60.2890625 62.98804855346678 L 60.305755615234375 62.97718048095702 L 60.35630798339844 62.94600677490233 L 60.36483383178711 62.93872451782225 L 60.41600036621094 62.895019531249986 L 60.43718719482422 62.87692260742186 L 60.45341110229492 62.86196136474608 L 60.50648880004883 62.797084808349595 L 60.52207946777344 62.771415710449205 L 60.57010269165039 62.68885040283202 L 60.60380172729492 62.59870147705077 L 60.61307144165039 62.56331634521483 L 60.62157440185547 62.53292083740233 L 60.6218147277832 62.529933929443345 L 60.6222038269043 62.52504730224608 M -51.376197814941406 48.98520660400389 L -51.37589645385742 48.98407745361327 L -51.37163162231445 48.96804046630858 L -51.36825942993164 48.8618812561035 L -51.366844177246094 48.83920288085936 L -51.36747360229492 48.830226898193345 L -51.39358901977539 48.69374084472655 L -51.39815902709961 48.67389678955077 L -51.40414047241211 48.65925216674803 L -51.46311950683594 48.531188964843736 L -51.47382736206055 48.514179229736314 L -51.54375457763672 48.42150497436522 L -51.557456970214844 48.40685653686522 L -51.65434646606445 48.32850265502928 L -51.659542083740234 48.32440948486327 L -51.682376861572266 48.311340332031236 L -51.813812255859375 48.24899291992186 L -51.81995391845703 48.24663162231444 L -51.84341812133789 48.24206161499022 L -51.888912200927734 48.23026657104491 L -51.92328643798828 48.2265167236328 L -51.977691650390625 48.220581054687486 L -51.981590270996094 48.220157623291 L -51.99796676635742 48.22094345092772 L -52.04515075683594 48.22178649902342 L -52.181636810302734 48.25043487548827 L -52.20809555053711 48.25657653808592 L -52.2239990234375 48.263034820556626 L -52.26201629638672 48.27848052978514 L -52.2785530090332 48.28761291503905 L -52.39650344848633 48.365966796874986 L -52.41130828857422 48.37699127197264 L -52.47618103027344 48.44692230224608 L -52.48232650756836 48.45419311523436 L -52.48909378051758 48.46219635009764 L -52.58682632446289 48.6399688720703 L -52.58684539794922 48.63999938964842 L -52.59674835205078 48.65760803222655 L -52.604148864746094 48.67996978759764 L -52.620059967041016 48.7377471923828 L -52.62015914916992 48.7381019592285 L -52.62437057495117 48.761692047119126 L -52.62578582763672 48.769565582275376 L -52.630001068115234 48.793998718261705 L -52.632999420166016 48.82199859619139 L -52.6349983215332 48.88000106811522 L -52.632999420166016 48.93799972534178 L -52.630001068115234 48.96599960327147 L -52.625 48.99499893188475 L -52.619998931884766 49.02299880981444 L -52.60599899291992 49.078998565673814 L -52.59700012207031 49.10599899291991 L -52.58700180053711 49.132999420166 L -52.57896041870117 49.15200042724608 L -52.57600021362305 49.1590003967285 L -52.5629997253418 49.185001373291 L -52.54999923706055 49.20999908447264 L -52.5359992980957 49.23500061035155 L -52.52000045776367 49.258998870849595 L -52.50400161743164 49.282001495361314 L -52.46799850463867 49.32600021362303 L -52.44900131225586 49.3470001220703 L -52.42900085449219 49.36700057983397 L -52.41130828857422 49.38300704956053 L -52.40626907348633 49.387416839599595 L -52.38857650756836 49.40258407592772 L -52.38164520263672 49.40793609619139 L -52.35300064086914 49.42900085449217 L -52.30500030517578 49.45899963378905 L -52.25600051879883 49.484001159667955 L -52.2239990234375 49.496921539306626 L -52.20399856567383 49.50500106811522 L -52.1510009765625 49.52099990844725 L -52.09700012207031 49.53300094604491 L -52.04199981689453 49.539001464843736 L -51.986000061035156 49.54000091552733 L -51.930999755859375 49.53599929809569 L -51.875999450683594 49.52799987792967 L -51.821998596191406 49.51399993896483 L -51.79880142211914 49.50626754760741 L -51.78914260864258 49.50304794311522 L -51.77890396118164 49.499267578124986 L -51.671905517578125 49.44281768798827 L -51.667198181152344 49.440464019775376 L -51.662139892578125 49.43793869018553 L -51.65458297729492 49.43321228027342 L -51.649227142333984 49.4292755126953 L -51.537174224853516 49.32901763916014 L -51.53386688232422 49.32617950439452 L -51.53055953979492 49.32318878173827 L -51.527408599853516 49.32003784179686 L -51.524417877197266 49.316730499267564 L -51.520164489746094 49.31153488159178 L -51.45191955566406 49.20621871948241 L -51.44499206542969 49.196140289306626 L -51.44404602050781 49.19406890869139 L -51.43601608276367 49.176456451416 L -51.42586135864258 49.15200042724608 L -51.41114807128906 49.116569519042955 L -51.39473342895508 49.07703781127928 L -51.376197814941406 48.98520660400389 M -59.385536193847656 62.243259429931626 L -59.391998291015625 62.213092803955064 L -59.39215087890625 62.212394714355455 L -59.45281219482422 62.07085037231444 L -59.463993072509766 62.048801422119126 L -59.49348068237305 62.001621246337876 L -59.49599838256836 61.9980010986328 L -59.53200149536133 61.953998565673814 L -59.533809661865234 61.951999664306626 L -59.55099868774414 61.93299865722655 L -59.56785202026367 61.91614913940428 L -59.572574615478516 61.91158294677733 L -59.590267181396484 61.89557647705077 L -59.60795974731445 61.88040924072264 L -59.614891052246094 61.87474060058592 L -59.6342658996582 61.8604164123535 L -59.641510009765625 61.85537719726561 L -59.67100143432617 61.835998535156236 L -59.71900177001953 61.80799865722655 L -59.77000045776367 61.784999847412095 L -59.821998596191406 61.76599884033202 L -59.875999450683594 61.75199890136717 L -59.90399932861328 61.74792861938475 L -59.930999755859375 61.74399948120116 L -59.986000061035156 61.74000167846678 L -60.04199981689453 61.741001129150376 L -60.09700012207031 61.747001647949205 L -60.1510009765625 61.758998870849595 L -60.191001892089844 61.77000045776366 L -60.1971435546875 61.77236175537108 L -60.25106430053711 61.794269561767564 L -60.25909423828125 61.79788970947264 L -60.321441650390625 61.83158874511717 L -60.32899856567383 61.835998535156236 L -60.3397102355957 61.843715667724595 L -60.41469192504883 61.90100860595702 L -60.41600036621094 61.90219116210936 L -60.417999267578125 61.90399932861327 L -60.42130661010742 61.90699386596678 L -60.42729187011719 61.91360473632811 L -60.47700119018555 61.965000152587876 L -60.512001037597656 62.00999832153319 L -60.542999267578125 62.056999206542955 L -60.569000244140625 62.10800170898436 L -60.59199905395508 62.16099929809569 L -60.60900115966797 62.215000152587876 L -60.62300109863281 62.27099990844725 L -60.63100051879883 62.32799911499022 L -60.631629943847656 62.34044265747069 L -60.634159088134766 62.425537109374986 L -60.63336944580078 62.43687438964842 L -60.629215240478516 62.46400070190428 L -60.619049072265625 62.530395507812486 L -60.61574172973633 62.547084808349595 L -60.609439849853516 62.563938140869126 L -60.569000244140625 62.69200134277342 L -60.54948425292969 62.72432708740233 L -60.515079498291016 62.78130722045897 L -60.502479553222656 62.80115127563475 L -60.434234619140625 62.87950515747069 L -60.41927719116211 62.89493560791014 L -60.40525817871094 62.90485763549803 L -60.26371765136719 63.0000648498535 L -60.25190734863281 63.00573348999022 L -60.14069366455078 63.04196166992186 L -60.121795654296875 63.04731369018553 L -60.029117584228516 63.05826950073241 L -60.00959014892578 63.060001373291 L -59.8933219909668 63.049045562744126 L -59.875999450683594 63.04700088500975 L -59.77000045776367 63.01499938964842 L -59.67100143432617 62.96400070190428 L -59.61370849609375 62.92271804809569 L -59.59040069580078 62.90240097045897 L -59.555015563964844 62.87038421630858 L -59.491825103759766 62.7895050048828 L -59.48471450805664 62.77975463867186 L -59.48332214355469 62.777851104736314 L -59.47544860839844 62.76288986206053 L -59.409732818603516 62.643253326416 L -59.40422058105469 62.62608718872069 L -59.391998291015625 62.57755279541014 L -59.374732971191406 62.508975982666 L -59.37205505371094 62.49102401733397 L -59.37205505371094 62.477481842041 L -59.36952590942383 62.33256530761717 L -59.37205505371094 62.31846618652342 L -59.385536193847656 62.243259429931626 z" fill="none" stroke="rgb(255,0,0)" stroke-width="0.001mm" />
</svg>